<svg width="136" height="136" viewBox="0 0 136 136" fill="none" xmlns="http://www.w3.org/2000/svg">
<circle cx="68.0012" cy="68.0003" r="67" transform="rotate(15 68.0012 68.0003)" fill="#3363FF"/>
<path opacity="0.1" d="M115.44 90.9196L130.166 94.8654L135.27 75.8169L120.529 71.8671C110.573 69.1993 108.818 55.8371 117.742 50.6722L130.952 43.0453L121.088 25.9609L107.878 33.5878C98.9579 38.7379 88.2486 30.5327 90.9164 20.5762L94.8663 5.83527L75.8178 0.731251L71.868 15.4722C69.2002 25.4287 55.838 27.1839 50.6731 18.2598L43.0461 5.04962L25.9618 14.9133L33.5887 28.1234C38.7387 37.0436 30.5336 47.7528 20.5771 45.085L5.83613 41.1352L0.732115 60.1836L15.4582 64.1295C25.4146 66.7973 27.1699 80.1594 18.2457 85.3244L5.03558 92.9513L14.8993 110.036L28.1094 102.409C37.0296 97.2587 47.7388 105.464 45.071 115.42L41.1211 130.161L60.1696 135.265L64.1194 120.524C66.7872 110.568 80.1494 108.813 85.3144 117.737L92.9412 130.947L110.026 121.083L102.399 107.873C97.2487 98.953 105.454 88.2438 115.41 90.9116L115.44 90.9196Z" fill="black"/>
<path d="M39.7593 41.5896L39.7983 40.6304L45.074 40.8452L45.2887 35.5695L46.2479 35.6086L46.0332 40.8842L51.3088 41.0989L51.2698 42.0581L45.9941 41.8434L45.7794 47.119L44.8202 47.08L45.0349 41.8044L39.7593 41.5896ZM52.0249 47.133L55.3822 47.2697C55.3041 49.1881 56.0848 50.6611 58.243 50.7489C59.8977 50.8163 60.9248 49.7772 60.9882 48.2185C61.0614 46.42 60.1364 45.5416 58.0981 45.4586L56.6832 45.4011L56.7906 42.7632L58.2054 42.8208C60.0039 42.894 60.8774 42.0889 60.936 40.6501C60.9848 39.4511 60.3093 38.3427 58.5108 38.2695C56.5924 38.1914 55.9392 39.4859 55.8806 40.9247L52.7632 40.7978C52.8754 38.0401 54.5366 35.5856 58.6133 35.7516C62.57 35.9126 64.2806 38.144 64.183 40.542C64.0659 43.4197 61.7585 44.0463 61.7585 44.0463L61.7536 44.1662C61.7536 44.1662 64.487 44.878 64.3503 48.2352C64.2381 50.9929 62.2172 53.4328 58.1405 53.2668C53.5843 53.0814 51.898 50.2505 52.0249 47.133ZM77.3041 36.8726L77.2065 39.2706C72.9785 42.8216 71.5306 48.8878 71.3452 53.444L67.7482 53.2976C68.2173 47.672 70.4753 42.3594 73.7196 39.3689L65.4464 39.0322L65.5538 36.3944L77.3041 36.8726ZM82.6237 32.1891C83.9666 32.2438 84.9625 32.7567 85.6116 33.7279C86.2773 34.6837 86.5756 36.009 86.5066 37.7036C86.4377 39.3982 86.0559 40.7117 85.3614 41.6443C84.6676 42.5608 83.6092 42.9901 82.1864 42.9322C81.3071 42.8964 80.5725 42.6503 79.9826 42.194C79.4087 41.7382 78.9861 41.1045 78.7149 40.2928C78.4443 39.4651 78.3318 38.4918 78.3774 37.3727C78.4463 35.6781 78.8194 34.3802 79.4966 33.479C80.1745 32.5618 81.2169 32.1318 82.6237 32.1891ZM82.5481 34.636C82.1644 34.6204 81.8749 34.8488 81.6795 35.3213C81.4841 35.7937 81.3663 36.5255 81.3259 37.5167C81.2863 38.4919 81.3442 39.2309 81.4999 39.7336C81.6556 40.2364 81.9253 40.4956 82.309 40.5112C82.6927 40.5268 82.9825 40.2904 83.1785 39.802C83.3906 39.3142 83.5164 38.5827 83.5561 37.6075C83.5964 36.6163 83.5305 35.877 83.3581 35.3896C83.2018 34.9028 82.9318 34.6517 82.5481 34.636ZM94.7719 32.9237L84.5788 49.6591L81.7731 49.5449L91.9662 32.8096L94.7719 32.9237ZM94.3356 39.5115C95.2308 39.5479 95.9734 39.7943 96.5634 40.2507C97.1539 40.6911 97.5848 41.3171 97.8561 42.1288C98.1439 42.9252 98.2647 43.8909 98.2185 45.0259C98.1496 46.7205 97.7678 48.0341 97.0733 48.9666C96.3795 49.8832 95.3211 50.3125 93.8983 50.2546C93.019 50.2188 92.2844 49.9727 91.6945 49.5163C91.1206 49.0606 90.698 48.4269 90.4268 47.6152C90.1562 46.7875 90.0437 45.8141 90.0893 44.6951C90.1582 43.0005 90.5313 41.7026 91.2085 40.8014C91.8864 39.8842 92.9288 39.4542 94.3356 39.5115ZM94.26 41.9584C93.8763 41.9428 93.5868 42.1712 93.3914 42.6437C93.196 43.1161 93.0782 43.8479 93.0378 44.8391C92.9982 45.8143 93.0561 46.5532 93.2118 47.056C93.3675 47.5587 93.6372 47.8179 94.0209 47.8335C94.4046 47.8492 94.6941 47.6207 94.8895 47.1483C95.1015 46.6605 95.2277 45.921 95.268 44.9299C95.3083 43.9387 95.2424 43.1994 95.07 42.712C94.9137 42.2252 94.6437 41.974 94.26 41.9584Z" fill="white"/>
<path d="M42.3053 70.9575L39.4707 66.8331L38.3977 66.7895L38.2348 70.7918L37.1789 70.7489L37.5338 62.0288L38.5897 62.0718L38.4358 65.8528L38.8957 65.8715L42.541 62.2326L43.8013 62.2839L40.1199 65.9725L43.5656 71.0088L42.3053 70.9575ZM46.9653 71.2837C46.3749 71.2596 45.8626 71.098 45.4283 70.7989C44.997 70.4998 44.6667 70.0926 44.4374 69.5772C44.211 69.0619 44.1116 68.4664 44.1391 67.7908C44.1668 67.1096 44.3145 66.5199 44.5821 66.0219C44.8526 65.524 45.215 65.1435 45.6692 64.8805C46.1263 64.6176 46.6501 64.4982 47.2405 64.5222C47.8309 64.5463 48.3418 64.7078 48.7732 65.0068C49.2074 65.306 49.5377 65.7146 49.7639 66.2328C49.993 66.7511 50.0937 67.3508 50.066 68.0321C50.0385 68.7077 49.8896 69.293 49.6192 69.7881C49.3517 70.2833 48.9894 70.6623 48.5323 70.9252C48.078 71.1882 47.5557 71.3077 46.9653 71.2837ZM47.002 70.381C47.4505 70.3993 47.8242 70.2993 48.1231 70.0812C48.422 69.863 48.6486 69.5695 48.803 69.2004C48.9573 68.8314 49.0434 68.4283 49.0612 67.9912C49.0789 67.554 49.026 67.1439 48.9023 66.7607C48.7785 66.3775 48.5766 66.0636 48.2966 65.8191C48.0165 65.5745 47.6522 65.4431 47.2038 65.4249C46.7553 65.4066 46.3815 65.508 46.0825 65.729C45.7835 65.9499 45.5568 66.2464 45.4023 66.6182C45.2479 66.9901 45.1617 67.3946 45.1439 67.8317C45.1261 68.2689 45.1792 68.6776 45.303 69.058C45.4268 69.4383 45.6289 69.7494 45.909 69.9911C46.1892 70.2328 46.5535 70.3628 47.002 70.381ZM55.997 67.7788L55.9589 68.7155L52.3483 68.5685L52.3864 67.6318L55.997 67.7788ZM52.7392 64.8313L52.473 71.3714L51.4682 71.3305L51.7344 64.7904L52.7392 64.8313ZM56.8778 64.9998L56.6116 71.5398L55.6068 71.4989L55.873 64.9589L56.8778 64.9998ZM58.4468 71.6145L58.713 65.0745L61.3869 65.1833C62.0909 65.212 62.6436 65.3937 63.0451 65.7285C63.4466 66.0633 63.6367 66.4918 63.6154 67.0141C63.5992 67.4115 63.4689 67.7147 63.2244 67.9237C62.98 68.1298 62.6718 68.2637 62.2996 68.3253C62.5395 68.3692 62.7702 68.4639 62.9918 68.6094C63.2162 68.755 63.3987 68.9501 63.5395 69.1946C63.6803 69.4364 63.7437 69.7289 63.7298 70.0724C63.7161 70.4074 63.6188 70.7034 63.4377 70.9604C63.2567 71.2175 63.0041 71.4162 62.6799 71.5565C62.3557 71.6969 61.9723 71.758 61.5294 71.74L58.4468 71.6145ZM59.438 70.7336L61.5669 70.8203C61.9132 70.8344 62.1876 70.7631 62.3902 70.6064C62.5927 70.4498 62.6998 70.2295 62.7114 69.9457C62.7251 69.6079 62.638 69.3385 62.45 69.1375C62.2621 68.9337 61.995 68.8247 61.6487 68.8106L59.5198 68.7239L59.438 70.7336ZM59.5551 67.8553L61.2753 67.9254C61.5449 67.9363 61.7778 67.9089 61.9738 67.8429C62.17 67.7741 62.322 67.6723 62.4298 67.5373C62.5406 67.3997 62.5999 67.2343 62.6078 67.0413C62.619 66.766 62.5128 66.5456 62.2892 66.3801C62.0658 66.2118 61.7525 66.1194 61.3495 66.103L59.6293 66.033L59.5551 67.8553ZM67.916 72.1364C67.2858 72.1108 66.7479 71.9495 66.3022 71.6528C65.8595 71.3533 65.5249 70.9473 65.2984 70.4348C65.0748 69.9196 64.9767 69.3271 65.0039 68.6572C65.0312 67.9873 65.1773 67.4018 65.4422 66.9008C65.7101 66.3971 66.0698 66.0108 66.5215 65.742C66.9761 65.4705 67.4986 65.3468 68.089 65.3708C68.4296 65.3847 68.7637 65.4551 69.0912 65.5822C69.4187 65.7093 69.7135 65.9061 69.9756 66.1726C70.2378 66.4363 70.4413 66.7801 70.5861 67.204C70.7309 67.6278 70.7909 68.1449 70.7661 68.7552L70.7487 69.181L65.7075 68.9758L65.7428 68.1072L69.7622 68.2708C69.7772 67.9018 69.7168 67.5695 69.581 67.274C69.448 66.9785 69.2501 66.7416 68.9873 66.5632C68.7273 66.3848 68.4156 66.2883 68.0523 66.2735C67.652 66.2572 67.3017 66.3424 67.0012 66.5292C66.7037 66.7133 66.4705 66.9597 66.3015 67.2684C66.1326 67.5772 66.0408 67.9118 66.0261 68.2723L66.0025 68.8513C65.9824 69.3452 66.0506 69.7674 66.2069 70.1178C66.3662 70.4655 66.5955 70.735 66.8947 70.9263C67.1942 71.1147 67.5468 71.2172 67.9527 71.2338C68.2167 71.2445 68.4566 71.2173 68.6725 71.1522C68.8914 71.0843 69.0819 70.9783 69.2442 70.8342C69.4065 70.6873 69.5349 70.502 69.6293 70.2784L70.589 70.5904C70.4734 70.9155 70.2899 71.1981 70.0385 71.4381C69.7871 71.6752 69.4812 71.8561 69.1208 71.9807C68.7604 72.1025 68.3588 72.1544 67.916 72.1364ZM72.0583 74.6251L72.4243 65.6326L73.3951 65.6721L73.3528 66.711L73.472 66.7158C73.5504 66.6053 73.6585 66.4647 73.7962 66.294C73.9369 66.1206 74.1336 65.9694 74.3862 65.8404C74.6418 65.7086 74.9824 65.6514 75.4082 65.6687C75.9589 65.6911 76.4387 65.8486 76.8476 66.141C77.2565 66.4334 77.5685 66.8371 77.7835 67.3519C77.9985 67.8668 78.0921 68.4677 78.0641 69.1546C78.0359 69.8472 77.8937 70.4428 77.6374 70.9413C77.3812 71.437 77.0389 71.8154 76.6103 72.0766C76.1818 72.335 75.6951 72.453 75.15 72.4309C74.7299 72.4138 74.3964 72.3305 74.1494 72.1811C73.9026 72.0289 73.7147 71.8606 73.5857 71.6763C73.4568 71.4891 73.3579 71.3343 73.289 71.2121L73.2038 71.2086L73.0631 74.666L72.0583 74.6251ZM73.279 68.9428C73.2589 69.4367 73.3135 69.8754 73.4429 70.2588C73.5725 70.6394 73.772 70.9418 74.0415 71.166C74.3111 71.3874 74.6475 71.5062 75.0505 71.5226C75.4706 71.5397 75.8257 71.4433 76.1157 71.2333C76.4087 71.0207 76.6339 70.7284 76.7912 70.3567C76.9514 69.9822 77.041 69.5622 77.06 69.0967C77.0787 68.6368 77.0246 68.2195 76.8977 67.8447C76.7737 67.4672 76.5742 67.1648 76.2991 66.9375C76.027 66.7075 75.678 66.5839 75.2523 66.5665C74.8435 66.5499 74.4958 66.6395 74.2092 66.8354C73.9227 67.0285 73.701 67.3066 73.544 67.6698C73.3872 68.0302 73.2989 68.4546 73.279 68.9428ZM82.1159 72.7144C81.5027 72.6894 80.9807 72.5232 80.5496 72.2156C80.1186 71.9081 79.7942 71.4954 79.5765 70.9776C79.3587 70.4598 79.2631 69.8744 79.2897 69.2216C79.3167 68.5573 79.4626 67.9761 79.7274 67.478C79.9952 66.9771 80.3549 66.5922 80.8065 66.3235C81.2611 66.0519 81.7836 65.9282 82.374 65.9522C82.8339 65.971 83.2449 66.073 83.6069 66.2583C83.969 66.4436 84.2616 66.6944 84.4847 67.0105C84.7079 67.3267 84.8395 67.6903 84.8796 68.1014L83.8748 68.0605C83.8103 67.7593 83.6507 67.4884 83.3961 67.2477C83.1444 67.0043 82.7972 66.8736 82.3543 66.8556C81.9626 66.8397 81.615 66.9279 81.3115 67.1202C81.0109 67.3099 80.7708 67.5858 80.5911 67.9481C80.4144 68.3077 80.316 68.7345 80.2959 69.2284C80.2753 69.7337 80.3369 70.1769 80.4806 70.558C80.6272 70.9393 80.8424 71.2395 81.1264 71.4586C81.4131 71.6778 81.7552 71.7955 82.1526 71.8117C82.4138 71.8223 82.6526 71.7866 82.8692 71.7044C83.0858 71.6222 83.2714 71.499 83.4259 71.3347C83.5804 71.1704 83.6938 70.9703 83.7659 70.7344L84.7708 70.7753C84.6983 71.159 84.5436 71.501 84.3068 71.8013C84.0729 72.0989 83.7692 72.331 83.3956 72.4978C83.025 72.6618 82.5984 72.734 82.1159 72.7144ZM87.2273 71.3018L90.584 66.3717L91.7421 66.4188L91.4759 72.9589L90.471 72.918L90.6769 67.8597L87.3373 72.7904L86.1621 72.7426L86.4283 66.2026L87.4332 66.2435L87.2273 71.3018ZM94.3815 71.593L97.7382 66.6629L98.8963 66.71L98.6301 73.2501L97.6253 73.2092L97.8312 68.1509L94.4915 73.0816L93.3163 73.0338L93.5825 66.4937L94.5874 66.5346L94.3815 71.593ZM26.1286 85.3115L26.3948 78.7715L29.0687 78.8803C29.7727 78.909 30.3254 79.0907 30.7269 79.4255C31.1284 79.7603 31.3185 80.1888 31.2973 80.7111C31.2811 81.1085 31.1508 81.4117 30.9063 81.6207C30.6619 81.8268 30.3536 81.9607 29.9815 82.0223C30.2214 82.0662 30.4521 82.1609 30.6736 82.3064C30.898 82.452 31.0806 82.6471 31.2213 82.8916C31.3622 83.1333 31.4256 83.4259 31.4116 83.7694C31.398 84.1044 31.3006 84.4004 31.1196 84.6574C30.9385 84.9145 30.6859 85.1132 30.3618 85.2535C30.0376 85.3938 29.6541 85.455 29.2113 85.437L26.1286 85.3115ZM27.1198 84.4306L29.2487 84.5173C29.595 84.5314 29.8695 84.4601 30.072 84.3034C30.2746 84.1468 30.3816 83.9265 30.3932 83.6427C30.407 83.3049 30.3198 83.0355 30.1318 82.8345C29.9439 82.6307 29.6768 82.5217 29.3305 82.5076L27.2016 82.4209L27.1198 84.4306ZM27.237 81.5523L28.9571 81.6224C29.2268 81.6333 29.4596 81.6058 29.6557 81.5399C29.8518 81.4711 30.0038 81.3693 30.1117 81.2343C30.2225 81.0967 30.2818 80.9313 30.2896 80.7383C30.3008 80.463 30.1947 80.2426 29.9711 80.0771C29.7476 79.9088 29.4344 79.8164 29.0313 79.8L27.3111 79.73L27.237 81.5523ZM38.8849 85.9672C38.2945 85.9432 37.7821 85.7816 37.3479 85.4824C36.9166 85.1834 36.5862 84.7761 36.357 84.2607C36.1306 83.7454 36.0312 83.1499 36.0587 82.4744C36.0864 81.7931 36.2341 81.2035 36.5017 80.7054C36.7722 80.2075 37.1346 79.827 37.5888 79.564C38.0459 79.3011 38.5697 79.1817 39.1601 79.2058C39.7505 79.2298 40.2614 79.3913 40.6928 79.6904C41.127 79.9895 41.4572 80.3982 41.6835 80.9163C41.9126 81.4346 42.0133 82.0344 41.9856 82.7156C41.9581 83.3912 41.8092 83.9765 41.5388 84.4716C41.2713 84.9668 40.909 85.3459 40.4519 85.6088C39.9976 85.8717 39.4753 85.9912 38.8849 85.9672ZM38.9216 85.0645C39.3701 85.0828 39.7438 84.9829 40.0427 84.7647C40.3416 84.5466 40.5682 84.253 40.7225 83.884C40.8769 83.5149 40.963 83.1118 40.9807 82.6747C40.9985 82.2376 40.9456 81.8274 40.8218 81.4442C40.6981 81.061 40.4962 80.7472 40.2162 80.5026C39.9361 80.2581 39.5718 80.1267 39.1233 80.1084C38.6749 80.0902 38.3011 80.1915 38.0021 80.4125C37.7031 80.6335 37.4764 80.9299 37.3219 81.3018C37.1674 81.6736 37.0813 82.0781 37.0635 82.5153C37.0457 82.9524 37.0988 83.3612 37.2226 83.7415C37.3464 84.1219 37.5484 84.4329 37.8286 84.6746C38.1088 84.9163 38.4731 85.0463 38.9216 85.0645ZM45.9538 88.3532L46.3996 77.4021L47.4044 77.443L46.9587 88.3941L45.9538 88.3532ZM46.0391 86.2584C45.5963 86.2404 45.1965 86.1445 44.8396 85.9707C44.4828 85.7941 44.1799 85.5529 43.9308 85.2471C43.6818 84.9384 43.4947 84.574 43.3697 84.1538C43.2446 83.7336 43.1924 83.2708 43.2129 82.7656C43.2337 82.2546 43.3235 81.7948 43.4823 81.3862C43.6412 80.9747 43.8573 80.6252 44.1306 80.3378C44.4039 80.0504 44.7254 79.8346 45.0952 79.6904C45.4651 79.5434 45.8715 79.4789 46.3143 79.4969L46.6209 79.5094L46.3457 86.2709L46.0391 86.2584ZM46.0759 85.3557L46.2462 85.3627L46.4479 80.4065L46.2776 80.3996C45.9426 80.386 45.6489 80.4423 45.3964 80.5685C45.144 80.6918 44.9322 80.8666 44.7609 81.0928C44.5926 81.3162 44.4626 81.5753 44.371 81.8702C44.2823 82.1651 44.2312 82.4772 44.2178 82.8065C44.2 83.2436 44.253 83.6523 44.3768 84.0327C44.5007 84.413 44.7027 84.7241 44.9829 84.9658C45.263 85.2075 45.6274 85.3375 46.0759 85.3557ZM47.044 86.2993L46.7374 86.2868L47.0126 79.5254L47.3192 79.5378C47.762 79.5559 48.1618 79.6532 48.5185 79.8298C48.8754 80.0035 49.1783 80.2447 49.4273 80.5534C49.6764 80.8621 49.8633 81.2279 49.9883 81.651C50.1133 82.0712 50.1655 82.5368 50.1447 83.0477C50.1241 83.553 50.0344 84.0099 49.8756 84.4186C49.7168 84.8272 49.5008 85.1753 49.2275 85.4627C48.9544 85.7473 48.6328 85.9631 48.2629 86.1101C47.8931 86.2542 47.4868 86.3173 47.044 86.2993ZM47.0807 85.3966C47.4185 85.4104 47.7121 85.3569 47.9615 85.2363C48.2139 85.1129 48.4243 84.9395 48.5926 84.7161C48.7639 84.4899 48.8938 84.2308 48.9825 83.9387C49.0741 83.6439 49.1265 83.3332 49.1398 83.0068C49.1576 82.5697 49.1047 82.1595 48.9809 81.7763C48.8572 81.3931 48.6553 81.0793 48.3753 80.8347C48.0952 80.5902 47.7309 80.4588 47.2824 80.4405L47.1121 80.4336L46.9104 85.3897L47.0807 85.3966ZM54.2003 86.5906C53.6099 86.5665 53.0976 86.4049 52.6634 86.1058C52.232 85.8068 51.9017 85.3995 51.6725 84.8841C51.4461 84.3688 51.3466 83.7733 51.3741 83.0977C51.4019 82.4165 51.5495 81.8268 51.8172 81.3288C52.0876 80.8309 52.45 80.4504 52.9043 80.1874C53.3614 79.9245 53.8851 79.8051 54.4755 79.8291C55.066 79.8532 55.5769 80.0147 56.0082 80.3137C56.4424 80.6129 56.7727 81.0215 56.999 81.5397C57.2281 82.058 57.3288 82.6577 57.301 83.339C57.2735 84.0146 57.1246 84.5999 56.8543 85.095C56.5867 85.5902 56.2244 85.9693 55.7673 86.2321C55.3131 86.4951 54.7907 86.6146 54.2003 86.5906ZM54.2371 85.6879C54.6856 85.7062 55.0593 85.6062 55.3581 85.3881C55.657 85.1699 55.8836 84.8764 56.038 84.5073C56.1923 84.1383 56.2784 83.7352 56.2962 83.2981C56.314 82.8609 56.261 82.4508 56.1373 82.0676C56.0136 81.6844 55.8117 81.3705 55.5316 81.126C55.2516 80.8814 54.8873 80.75 54.4388 80.7318C53.9903 80.7135 53.6166 80.8149 53.3175 81.0359C53.0185 81.2568 52.7918 81.5533 52.6373 81.9251C52.4829 82.297 52.3968 82.7015 52.379 83.1386C52.3612 83.5758 52.4142 83.9845 52.538 84.3649C52.6619 84.7452 52.8639 85.0563 53.1441 85.298C53.4242 85.5397 53.7886 85.6697 54.2371 85.6879ZM58.6034 89.0899L58.9694 80.0973L59.9402 80.1368L59.8979 81.1758L60.0171 81.1806C60.0956 81.0701 60.2036 80.9295 60.3414 80.7588C60.4821 80.5854 60.6787 80.4342 60.9313 80.3051C61.1869 80.1734 61.5276 80.1162 61.9534 80.1335C62.504 80.1559 62.9838 80.3133 63.3927 80.6058C63.8016 80.8982 64.1136 81.3019 64.3286 81.8167C64.5437 82.3316 64.6372 82.9325 64.6092 83.6194C64.5811 84.312 64.4388 84.9076 64.1825 85.4061C63.9264 85.9017 63.584 86.2802 63.1554 86.5414C62.7269 86.7997 62.2402 86.9178 61.6952 86.8956C61.2751 86.8785 60.9415 86.7953 60.6946 86.6459C60.4477 86.4937 60.2598 86.3254 60.1308 86.141C60.002 85.9538 59.9031 85.7991 59.8341 85.6769L59.749 85.6734L59.6082 89.1308L58.6034 89.0899ZM59.8241 83.4076C59.804 83.9015 59.8587 84.3401 59.9881 84.7236C60.1176 85.1041 60.3171 85.4065 60.5866 85.6308C60.8562 85.8521 61.1926 85.971 61.5957 85.9874C62.0158 86.0045 62.3708 85.9081 62.6609 85.6981C62.9539 85.4854 63.179 85.1932 63.3363 84.8215C63.4965 84.447 63.5861 84.027 63.6051 83.5615C63.6238 83.1016 63.5697 82.6843 63.4428 82.3095C63.3188 81.932 63.1193 81.6296 62.8443 81.4023C62.5721 81.1723 62.2232 81.0486 61.7974 81.0313C61.3886 81.0147 61.041 81.1043 60.7544 81.3002C60.4679 81.4932 60.2461 81.7714 60.0892 82.1346C59.9324 82.495 59.844 82.9193 59.8241 83.4076ZM69.6417 85.7178L72.1346 80.6332L73.0884 80.672L69.995 87.097L69.1775 87.0637L66.6676 80.4107L67.6043 80.4488L69.6417 85.7178ZM67.2807 80.4356L67.0145 86.9757L66.0097 86.9348L66.2759 80.3947L67.2807 80.4356ZM72.158 87.185L72.4242 80.645L73.429 80.6859L73.1628 87.2259L72.158 87.185ZM74.4232 87.2772L74.4613 86.3405L74.6997 86.3502C74.8956 86.3582 75.0604 86.3265 75.194 86.2552C75.3279 86.181 75.4385 86.0476 75.5259 85.855C75.6163 85.6596 75.69 85.3868 75.7469 85.0366C75.8068 84.6836 75.8578 84.2336 75.8999 83.6866L76.137 80.7961L80.497 80.9736L80.2308 87.5136L79.226 87.4727L79.4541 81.8694L77.0526 81.7716L76.8555 84.1008C76.8109 84.6363 76.7434 85.107 76.653 85.5127C76.5655 85.9158 76.4424 86.2519 76.2836 86.5213C76.1276 86.7907 75.9261 86.9901 75.6792 87.1194C75.4323 87.2486 75.1271 87.3059 74.7638 87.2911L74.4232 87.2772ZM84.811 87.8365C84.1808 87.8108 83.6429 87.6496 83.1972 87.3529C82.7545 87.0534 82.4199 86.6474 82.1934 86.1349C81.9698 85.6197 81.8717 85.0271 81.8989 84.3572C81.9262 83.6873 82.0723 83.1019 82.3372 82.6009C82.6051 82.0972 82.9648 81.7109 83.4165 81.4421C83.8711 81.1706 84.3936 81.0469 84.984 81.0709C85.3246 81.0848 85.6587 81.1552 85.9862 81.2823C86.3137 81.4093 86.6085 81.6061 86.8706 81.8727C87.1328 82.1364 87.3363 82.4802 87.4811 82.9041C87.6259 83.3279 87.6859 83.845 87.6611 84.4553L87.6438 84.8811L82.6025 84.6759L82.6378 83.8073L86.6572 83.9709C86.6722 83.6019 86.6118 83.2696 86.476 82.9741C86.343 82.6786 86.1451 82.4417 85.8823 82.2632C85.6223 82.0849 85.3106 81.9883 84.9473 81.9736C84.547 81.9573 84.1967 82.0425 83.8962 82.2293C83.5987 82.4134 83.3655 82.6598 83.1965 82.9685C83.0276 83.2772 82.9358 83.6119 82.9211 83.9724L82.8976 84.5514C82.8774 85.0453 82.9456 85.4675 83.1019 85.8179C83.2612 86.1656 83.4905 86.435 83.7898 86.6264C84.0892 86.8148 84.4418 86.9173 84.8477 86.9338C85.1117 86.9446 85.3517 86.9174 85.5676 86.8522C85.7864 86.7844 85.9769 86.6784 86.1392 86.5343C86.3016 86.3874 86.4299 86.2021 86.5243 85.9785L87.484 86.2905C87.3684 86.6156 87.1849 86.8982 86.9335 87.1381C86.6821 87.3753 86.3762 87.5562 86.0158 87.6808C85.6554 87.8026 85.2538 87.8545 84.811 87.8365ZM93.582 84.321L93.5438 85.2577L89.9332 85.1107L89.9713 84.174L93.582 84.321ZM90.3241 81.3735L90.0579 87.9136L89.0531 87.8727L89.3193 81.3326L90.3241 81.3735ZM94.4627 81.542L94.1966 88.082L93.1917 88.0411L93.4579 81.5011L94.4627 81.542ZM97.0968 86.7159L100.454 81.7858L101.612 81.833L101.345 88.373L100.341 88.3321L100.546 83.2738L97.2068 88.2046L96.0317 88.1567L96.2979 81.6167L97.3027 81.6576L97.0968 86.7159ZM105.922 88.6958C105.292 88.6701 104.754 88.5089 104.309 88.2121C103.866 87.9126 103.531 87.5066 103.305 86.9942C103.081 86.479 102.983 85.8864 103.01 85.2165C103.038 84.5466 103.184 83.9612 103.449 83.4602C103.717 82.9564 104.076 82.5702 104.528 82.3014C104.983 82.0299 105.505 81.9061 106.095 81.9302C106.436 81.944 106.77 82.0145 107.098 82.1416C107.425 82.2686 107.72 82.4654 107.982 82.732C108.244 82.9957 108.448 83.3395 108.593 83.7634C108.737 84.1872 108.797 84.7043 108.773 85.3146L108.755 85.7404L103.714 85.5352L103.749 84.6666L107.769 84.8302C107.784 84.4612 107.723 84.1289 107.587 83.8333C107.454 83.5379 107.257 83.301 106.994 83.1225C106.734 82.9442 106.422 82.8476 106.059 82.8328C105.658 82.8165 105.308 82.9018 105.008 83.0886C104.71 83.2727 104.477 83.5191 104.308 83.8278C104.139 84.1365 104.047 84.4711 104.033 84.8316L104.009 85.4107C103.989 85.9046 104.057 86.3268 104.213 86.6772C104.373 87.0248 104.602 87.2943 104.901 87.4856C105.201 87.6741 105.553 87.7766 105.959 87.7931C106.223 87.8039 106.463 87.7767 106.679 87.7115C106.898 87.6437 107.088 87.5377 107.251 87.3936C107.413 87.2467 107.541 87.0614 107.636 86.8378L108.595 87.1498C108.48 87.4749 108.296 87.7575 108.045 87.9974C107.794 88.2346 107.488 88.4155 107.127 88.5401C106.767 88.6619 106.365 88.7138 105.922 88.6958ZM43.7028 101.039L43.9689 94.4992L44.9738 94.5401L44.858 97.3843L45.5223 97.4114L47.9883 94.6628L49.2827 94.7155L46.5146 97.7588L49.0506 101.257L47.7562 101.204L45.7226 98.3578L44.8199 98.3211L44.7076 101.08L43.7028 101.039ZM50.0429 103.754L50.4089 94.7613L51.3797 94.8008L51.3374 95.8397L51.4567 95.8446C51.5351 95.7341 51.6432 95.5935 51.7809 95.4228C51.9216 95.2494 52.1182 95.0982 52.3709 94.9691C52.6264 94.8374 52.9671 94.7801 53.3929 94.7975C53.9436 94.8199 54.4234 94.9773 54.8323 95.2698C55.2412 95.5622 55.5531 95.9658 55.7682 96.4807C55.9832 96.9956 56.0767 97.5964 56.0488 98.2834C56.0206 98.976 55.8783 99.5715 55.6221 100.07C55.3659 100.566 55.0235 100.944 54.5949 101.205C54.1664 101.464 53.6797 101.582 53.1347 101.56C52.7146 101.543 52.3811 101.459 52.1341 101.31C51.8872 101.158 51.6993 100.989 51.5704 100.805C51.4415 100.618 51.3426 100.463 51.2736 100.341L51.1885 100.337L51.0478 103.795L50.0429 103.754ZM51.2637 98.0715C51.2435 98.5655 51.2982 99.0041 51.4276 99.3875C51.5571 99.7681 51.7566 100.071 52.0261 100.295C52.2958 100.516 52.6321 100.635 53.0352 100.651C53.4553 100.669 53.8104 100.572 54.1004 100.362C54.3934 100.149 54.6185 99.8572 54.7758 99.4854C54.9361 99.111 55.0257 98.691 55.0446 98.2254C55.0633 97.7656 55.0092 97.3483 54.8823 96.9735C54.7584 96.596 54.5589 96.2936 54.2838 96.0663C54.0117 95.8363 53.6627 95.7126 53.2369 95.6953C52.8282 95.6787 52.4805 95.7683 52.1939 95.9642C51.9074 96.1572 51.6857 96.4354 51.5287 96.7986C51.3719 97.159 51.2835 97.5833 51.2637 98.0715ZM60.1857 101.847C59.5555 101.821 59.0176 101.66 58.5719 101.363C58.1292 101.063 57.7946 100.657 57.5681 100.145C57.3445 99.6298 57.2464 99.0372 57.2736 98.3673C57.3009 97.6974 57.447 97.112 57.7119 96.611C57.9798 96.1073 58.3395 95.721 58.7912 95.4522C59.2458 95.1807 59.7683 95.057 60.3587 95.081C60.6993 95.0949 61.0334 95.1653 61.3609 95.2924C61.6884 95.4195 61.9832 95.6163 62.2453 95.8828C62.5075 96.1465 62.711 96.4903 62.8558 96.9142C63.0006 97.338 63.0606 97.8551 63.0358 98.4654L63.0185 98.8912L57.9772 98.686L58.0125 97.8174L62.0319 97.981C62.0469 97.612 61.9865 97.2797 61.8507 96.9842C61.7177 96.6887 61.5198 96.4518 61.257 96.2734C60.997 96.095 60.6853 95.9985 60.322 95.9837C59.9217 95.9674 59.5714 96.0526 59.2709 96.2394C58.9734 96.4235 58.7402 96.6699 58.5712 96.9786C58.4023 97.2874 58.3105 97.622 58.2958 97.9825L58.2722 98.5615C58.2521 99.0554 58.3203 99.4776 58.4766 99.828C58.6359 100.176 58.8652 100.445 59.1645 100.636C59.4639 100.825 59.8165 100.927 60.2224 100.944C60.4864 100.955 60.7264 100.927 60.9423 100.862C61.1611 100.795 61.3516 100.689 61.5139 100.544C61.6763 100.398 61.8046 100.212 61.899 99.9886L62.8587 100.301C62.7431 100.626 62.5596 100.908 62.3082 101.148C62.0568 101.385 61.7509 101.566 61.3905 101.691C61.0301 101.813 60.6285 101.865 60.1857 101.847ZM63.6532 103.728L63.7676 100.918L64.3126 100.94C64.4517 100.806 64.5728 100.66 64.6759 100.503C64.779 100.345 64.8705 100.156 64.9505 99.938C65.0334 99.7167 65.107 99.4468 65.1711 99.1281C65.2354 98.8066 65.2967 98.4181 65.355 97.9627L65.6818 95.383L69.8374 95.5521L69.6094 101.155L70.6142 101.196L70.4998 104.006L69.495 103.966L69.5713 102.092L64.7343 101.895L64.6581 103.769L63.6532 103.728ZM65.4537 100.986L68.6045 101.115L68.7945 96.4479L66.5804 96.3578L66.3428 98.0029C66.244 98.6841 66.1317 99.2781 66.0059 99.7847C65.8801 100.291 65.696 100.692 65.4537 100.986ZM72.975 100.747L76.3317 95.8164L77.4898 95.8636L77.2237 102.404L76.2188 102.363L76.4247 97.3044L73.085 102.235L71.9099 102.187L72.1761 95.6473L73.1809 95.6882L72.975 100.747ZM78.4023 96.839L78.4404 95.9023L83.7542 96.1186L83.7161 97.0553L81.5701 96.9679L81.342 102.571L80.3372 102.53L80.5653 96.927L78.4023 96.839ZM86.5325 102.936C86.1181 102.919 85.7451 102.826 85.4137 102.656C85.0824 102.483 84.8234 102.244 84.6369 101.938C84.4504 101.629 84.3659 101.261 84.3832 100.836C84.3984 100.461 84.4846 100.16 84.6417 99.9334C84.7989 99.7038 85.0037 99.5273 85.2561 99.4039C85.5084 99.2806 85.785 99.1923 86.0857 99.1392C86.3893 99.0833 86.6939 99.0417 86.9992 99.0143C87.3987 98.9794 87.7224 98.9542 87.9704 98.9387C88.2214 98.9204 88.4049 98.881 88.5211 98.8203C88.6402 98.7598 88.703 98.6486 88.7096 98.4868L88.7109 98.4528C88.728 98.0326 88.6264 97.7015 88.4059 97.4594C88.1883 97.2174 87.8482 97.087 87.3855 97.0682C86.9058 97.0486 86.5254 97.1383 86.2443 97.3373C85.9633 97.5363 85.7625 97.7527 85.6421 97.9867L84.7022 97.6072C84.8887 97.2167 85.1284 96.9166 85.4213 96.7067C85.7171 96.4941 86.0357 96.3507 86.3771 96.2765C86.7214 96.1995 87.0582 96.1677 87.3875 96.1811C87.5975 96.1897 87.8378 96.2251 88.1082 96.2872C88.3816 96.3467 88.6429 96.4583 88.8921 96.622C89.1442 96.7858 89.3491 97.0258 89.5068 97.3422C89.6645 97.6585 89.7328 98.0764 89.7116 98.5958L89.5363 102.905L88.5314 102.864L88.5675 101.978L88.5164 101.976C88.4425 102.115 88.3227 102.263 88.1572 102.418C87.9916 102.573 87.7746 102.702 87.506 102.805C87.2374 102.908 86.9129 102.952 86.5325 102.936ZM86.7225 102.04C87.1199 102.056 87.458 101.991 87.7369 101.846C88.0186 101.701 88.234 101.508 88.3832 101.267C88.5351 101.026 88.6167 100.769 88.6278 100.497L88.6652 99.5768C88.6205 99.6262 88.525 99.6692 88.3785 99.7059C88.2349 99.7399 88.0688 99.7686 87.8802 99.7922C87.6946 99.8131 87.5133 99.8313 87.3364 99.8469C87.1624 99.8597 87.0212 99.871 86.9127 99.8808C86.6502 99.9042 86.4038 99.9497 86.1736 100.017C85.9464 100.082 85.7602 100.186 85.6149 100.331C85.4727 100.473 85.3964 100.672 85.386 100.928C85.3717 101.277 85.4902 101.546 85.7412 101.735C85.9952 101.922 86.3223 102.023 86.7225 102.04Z" fill="white"/>
</svg>
