<svg width="147" height="32" viewBox="0 0 147 32" fill="none" xmlns="http://www.w3.org/2000/svg">
<g clip-path="url(#clip0_248_3758)">
<path d="M137.874 12.7543H140.891V9.28H143.68V12.7543H146.697V4.06857H143.68V7.13143H140.891V4.06857H137.874V12.7543ZM119.451 6.53714C120.091 6.12571 120.96 5.80571 121.691 5.80571C122.057 5.80571 122.926 5.85143 122.926 6.58286C122.926 7.31429 122.194 7.31429 121.92 7.31429H120.411V9.18857H121.737C122.149 9.18857 122.971 9.23429 122.971 9.92C122.971 10.1943 122.789 10.7429 121.737 10.7429C120.686 10.7429 120 10.4686 119.131 9.92L118.354 11.9771C120 12.9371 121.509 13.0286 122.24 13.0286C125.714 13.0286 126.126 11.0171 126.126 10.3771C126.126 9.46286 125.577 8.54857 124.389 8.22857C125.166 7.90857 125.623 7.13143 125.623 6.21714C125.623 4.20571 123.474 3.79429 122.194 3.79429C120.96 3.79429 119.589 4.16 118.674 4.66286L119.451 6.53714ZM112.914 2.97143C114.286 2.97143 115.703 2.42286 116.343 0.96L114.377 0.228571C114.149 1.23429 113.28 1.28 112.914 1.28C112.549 1.28 111.726 1.23429 111.497 0.228571L109.531 0.96C110.08 2.42286 111.543 2.97143 112.914 2.97143ZM108.16 4.06857V12.7086H111.131L114.149 7.95429V12.7086H117.166V4.06857H114.24L111.223 8.68571V4.06857H108.16ZM88 10.88V6.08C86.9943 6.08 85.9429 6.81143 85.9429 8.50286C85.9429 10.1029 86.9943 10.88 88 10.88ZM90.6972 6.08V10.88C91.7029 10.88 92.7543 10.1486 92.7543 8.50286C92.7543 6.81143 91.7029 6.08 90.6972 6.08ZM87.8172 16.5029V12.8914C85.9886 12.8914 83.0172 12.16 83.0172 8.41143C83.0172 4.70857 85.9886 3.93143 87.8172 3.97714V0.182857H90.8343V3.93143C92.6629 3.93143 95.6343 4.66286 95.6343 8.36571C95.6343 12.1143 92.6629 12.8457 90.8343 12.8457V16.4571H87.8172V16.5029ZM74.3772 10.88V6.08C73.3715 6.08 72.32 6.81143 72.32 8.50286C72.2743 10.1029 73.3258 10.88 74.3772 10.88ZM77.0286 6.08V10.88C78.0343 10.88 79.0858 10.1486 79.0858 8.50286C79.0858 6.81143 78.0343 6.08 77.0286 6.08ZM74.1486 16.5029V12.8914C72.32 12.8914 69.3486 12.16 69.3486 8.41143C69.3486 4.70857 72.32 3.93143 74.1486 3.97714V0.182857H77.1658V3.93143C78.9943 3.93143 81.9658 4.66286 81.9658 8.36571C81.9658 12.1143 78.9943 12.8457 77.1658 12.8457V16.4571H74.1486V16.5029ZM63.68 2.97143C65.0515 2.97143 66.4686 2.42286 67.1086 0.96L65.1429 0.228571C64.9143 1.23429 64.0458 1.28 63.68 1.28C63.3143 1.28 62.4915 1.23429 62.2172 0.228571L60.2515 0.96C60.8915 2.42286 62.3086 2.97143 63.68 2.97143ZM58.9258 4.06857V12.7086H61.8515L64.8686 7.95429V12.7086H67.8858V4.06857H64.96L61.9429 8.68571V4.06857H58.9258ZM40.4115 2.74286V5.62286H41.5086C43.0172 5.62286 43.1543 4.70857 43.1543 4.16C43.1543 3.56571 42.9715 2.74286 41.5086 2.74286H40.5486H40.4115ZM37.12 12.7543V0H42.24C45.7143 0 46.6743 2.46857 46.6743 4.20571C46.6743 5.94286 45.6686 8.41143 42.24 8.41143H40.3658V12.7543H37.12ZM106.286 4.06857V12.7086H103.269V11.7486H103.223C102.674 12.6171 101.623 12.9829 100.663 12.9829C98.1486 12.9829 96.3658 10.8343 96.3658 8.36571C96.3658 5.89714 98.1029 3.74857 100.663 3.74857C101.623 3.74857 102.674 4.11429 103.314 4.89143V4.06857H106.286ZM101.394 6.44571C100.16 6.44571 99.4286 7.36 99.4286 8.41143C99.4286 9.50857 100.16 10.3314 101.394 10.3314C102.629 10.3314 103.36 9.46286 103.36 8.41143C103.36 7.36 102.629 6.44571 101.394 6.44571ZM57.0515 4.06857V12.7086H54.0343V11.7486H53.9886C53.44 12.6171 52.3886 12.9829 51.4286 12.9829C48.9143 12.9829 47.1315 10.8343 47.1315 8.36571C47.1315 5.89714 48.8686 3.74857 51.4286 3.74857C52.3886 3.74857 53.44 4.11429 54.08 4.89143V4.06857H57.0515ZM52.16 6.44571C50.9258 6.44571 50.1943 7.36 50.1943 8.41143C50.1943 9.50857 50.9258 10.3314 52.16 10.3314C53.3943 10.3314 54.1258 9.46286 54.1258 8.41143C54.1258 7.36 53.3943 6.44571 52.16 6.44571ZM136.366 8.77714V9.09714H130.011C130.011 10.3314 130.651 11.0171 131.886 11.0171C132.526 11.0171 132.983 10.7886 133.349 10.24H136.274C135.771 12.2971 133.897 13.2114 131.931 13.2114C129.097 13.2114 126.994 11.6114 126.994 8.59429C126.994 5.71429 128.96 3.97714 131.703 3.97714C134.674 3.97714 136.366 5.80571 136.366 8.77714ZM130.057 7.31429H133.577C133.44 6.49143 132.663 5.94286 131.84 5.94286C130.971 5.94286 130.24 6.44571 130.057 7.31429ZM41.9658 26.56H41.0515L40.5943 29.2571H41.4629C43.4743 29.2571 43.84 28.7086 43.9772 27.9771C44.1143 27.1543 43.9315 26.56 41.9658 26.56ZM47.4515 27.9771C47.3143 28.8457 47.04 29.7143 46.4 30.3086C45.0286 31.68 42.9715 31.7714 41.6915 31.8171H36.6172L38.7658 19.1086H47.4515L47.04 21.6229H41.7829L41.3715 24.1829H42.88C44.0229 24.1829 45.44 24.32 46.4458 25.1886C47.2686 25.8286 47.68 26.7886 47.4515 27.9771ZM56.5943 29.6229H51.7943L50.5143 31.8171H46.8115L54.08 19.1086H57.8743L60.8 31.8171H57.0972L56.5943 29.6229ZM56.0915 27.0629L55.36 22.9943H55.3143L53.2115 27.0629H56.0915ZM80.2286 19.1086H76.7086L74.6058 31.8171H78.08L78.9943 26.2857H79.04L82.6058 31.8171H87.1315L82.4229 25.1429L88.7315 19.1086H84.4343L79.3601 24.3657H79.3143L80.2286 19.1086ZM66.7886 19.1086L66.0115 23.8629H70.6286L71.4058 19.1086H74.7886L72.7315 31.8171H69.3486L70.2172 26.3314H65.6L64.7315 31.8171H61.3486L63.4058 19.1086H66.7886Z" fill="white"/>
<path d="M30.7651 1.05176H1.05078V30.766H30.7651V1.05176Z" fill="#FAEB00"/>
<path d="M1.05143 1.05143H30.7657V30.7657H1.05143V1.05143ZM0 31.8171H31.8171V0H0V31.8171Z" fill="black"/>
<path d="M15.9092 19.5205L6.76637 28.6633L3.15494 25.0519L12.2978 15.909L10.3778 13.989V10.2405L9.05209 8.91476V12.2062L7.90923 13.349L3.24637 8.73191L2.10352 9.87476C2.10352 9.00619 2.28637 6.49191 4.38923 4.43476C6.67494 2.24048 9.14352 3.24619 10.0121 4.06905L14.6749 8.68619L13.4864 9.87476L15.9092 12.2976L18.3321 9.87476L17.1435 8.68619L21.8064 4.02333C22.6749 3.20048 25.1435 2.19476 27.4292 4.38905C29.5321 6.49191 29.7149 8.96048 29.7149 9.82905L28.5721 8.68619L23.9092 13.349L22.7664 12.2062V8.91476L21.4407 10.2405V13.989L19.5207 15.909L28.6635 25.0519L25.0521 28.6633L15.9092 19.5205Z" fill="black"/>
</g>
<defs>
<clipPath id="clip0_248_3758">
<rect width="146.743" height="32" fill="white"/>
</clipPath>
</defs>
</svg>
