<svg width="22" height="23" viewBox="0 0 22 23" fill="none" xmlns="http://www.w3.org/2000/svg">
<path opacity="0.5" d="M12.3414 19.1653L12.3416 19.1655C12.36 19.184 12.3796 19.1936 12.3831 19.1954L12.3835 19.1955C12.3904 19.199 12.3966 19.2016 12.4008 19.2032C12.4095 19.2066 12.4189 19.2098 12.4275 19.2126C12.4453 19.2183 12.4686 19.2251 12.4958 19.2326C12.5506 19.2478 12.627 19.2676 12.7188 19.2907C12.9028 19.3368 13.1522 19.3965 13.4228 19.4587L13.4564 19.3125L13.4228 19.4587C13.6941 19.5211 13.9432 19.5732 14.1262 19.607C14.2172 19.6238 14.2941 19.6365 14.3498 19.6435C14.3769 19.6469 14.4032 19.6495 14.4251 19.6499C14.435 19.6501 14.4514 19.6501 14.4691 19.6472C14.4773 19.6459 14.4945 19.6425 14.5139 19.6332C14.5307 19.6252 14.5758 19.5996 14.5941 19.5409L14.5943 19.5403C14.5984 19.5269 14.6017 19.5083 14.6033 19.4989L14.6036 19.4974C14.6061 19.483 14.6092 19.4639 14.6129 19.441C14.6202 19.3951 14.6298 19.3319 14.6411 19.2562C14.6637 19.1048 14.693 18.9019 14.7235 18.6841C14.8445 17.8228 15.1377 16.8191 15.4465 16.1986C16.4148 14.2531 18.1493 12.9678 20.2535 12.6335L20.2299 12.4853L20.2535 12.6335L20.8018 12.5463L20.9282 12.5262V12.3982V11.52V10.6417V10.5148L20.803 10.4938L20.3061 10.4104C17.1261 9.8767 15.0459 7.50389 14.655 3.91635C14.6418 3.7957 14.6273 3.68499 14.6143 3.60349C14.6079 3.5632 14.6015 3.52766 14.5954 3.50092C14.5926 3.48835 14.5888 3.47308 14.5838 3.45897C14.5817 3.45291 14.5768 3.43957 14.5682 3.42518C14.564 3.41829 14.555 3.40414 14.5396 3.39005C14.5252 3.37684 14.4901 3.35 14.437 3.35C14.4157 3.35 14.3898 3.35411 14.3726 3.35697C14.351 3.36057 14.324 3.36565 14.2931 3.37183C14.2312 3.38421 14.1497 3.40175 14.056 3.42268C13.8684 3.46459 13.6287 3.52071 13.3918 3.57783C13.1548 3.63494 12.9198 3.69325 12.7416 3.73956C12.6526 3.76267 12.5768 3.78303 12.5217 3.79889C12.4943 3.80675 12.4705 3.81396 12.4521 3.82013C12.4432 3.82313 12.4334 3.82662 12.4242 3.8304C12.4198 3.83225 12.4133 3.83506 12.4063 3.83879C12.4028 3.84061 12.3844 3.85001 12.3668 3.86781C12.3304 3.9046 12.3214 3.94985 12.319 3.96195L12.3189 3.96255C12.3149 3.98259 12.3134 4.00319 12.3127 4.02121C12.3114 4.058 12.3134 4.10261 12.3173 4.15023C12.3253 4.24651 12.3427 4.36956 12.3673 4.49732C12.3673 4.49732 12.3673 4.49732 12.3673 4.49733L12.5146 4.46901C13.0411 7.20904 14.5485 9.43867 16.5048 10.3709L12.3414 19.1653ZM12.3414 19.1653C12.311 19.1347 12.3014 19.0999 12.2983 19.0872C12.2941 19.0705 12.2925 19.0549 12.2919 19.0435C12.2905 19.0203 12.2917 18.9949 12.2936 18.9706C12.2976 18.9211 12.3067 18.8571 12.3191 18.7846C12.344 18.6386 12.3843 18.4454 12.4324 18.2375C12.5284 17.8225 12.6579 17.3373 12.7627 17.0376M12.3414 19.1653L16.3172 10.4458L7.32417 10.4621L1.22238 10.4732L1.07266 10.4735V10.6232V12.4005V12.5503L1.22238 12.5505L7.33986 12.5617L16.3415 12.5781L16.3067 12.5957C14.7269 13.3964 13.4886 14.9602 12.7627 17.0376M12.7627 17.0376L12.9043 17.087M12.7627 17.0376C12.7627 17.0376 12.7627 17.0375 12.7627 17.0375L12.9043 17.087M12.9043 17.087C12.7001 17.6713 12.392 19.0033 12.448 19.0597C12.4628 19.0746 12.9166 19.1884 13.4564 19.3125C13.9962 19.4366 14.4437 19.5192 14.4509 19.4961M12.9043 17.087C13.6209 15.0363 14.8377 13.5084 16.3745 12.7295L16.6721 12.5787L14.4509 19.4961M14.4509 19.4961C14.4581 19.473 14.5139 19.0982 14.575 18.6632C14.6977 17.7896 14.9948 16.7697 15.3122 16.1318L14.4509 19.4961Z" fill="white" stroke="white" stroke-width="0.3"/>
</svg>
