<svg xmlns="http://www.w3.org/2000/svg" width="21" height="17" viewBox="0 0 21 17" fill="none">
  <path opacity="0.3" d="M12.1469 16.2315C12.1621 16.2467 12.6262 16.3631 13.1783 16.49C13.7304 16.6169 14.1881 16.7014 14.1954 16.6778C14.2027 16.6542 14.2598 16.2709 14.3223 15.8259C14.4478 14.9325 14.7516 13.8894 15.0763 13.237C16.0882 11.2038 17.9037 9.85757 20.1058 9.50766L20.6665 9.41854V8.52037V7.62214L20.1583 7.53684C16.8285 6.97804 14.6577 4.48756 14.2516 0.760553C14.2251 0.517183 14.1934 0.318127 14.1812 0.318127C14.0689 0.318127 12.2081 0.76671 12.1729 0.802246C12.1475 0.827942 12.1664 1.05609 12.2151 1.30916C12.7535 4.11146 14.2952 6.39177 16.2959 7.34522L16.7759 7.57393L6.90696 7.59184L0.666504 7.60321V9.42096L6.92302 9.43234L16.7686 9.45032L16.1628 9.7574C14.5909 10.554 13.3465 12.1166 12.6137 14.214C12.4048 14.8115 12.0897 16.1737 12.1469 16.2315Z" fill="white"/>
</svg>