<svg xmlns="http://www.w3.org/2000/svg" width="24" height="24" viewBox="0 0 24 24" fill="none">
<mask id="mask0_383_774" style="mask-type:alpha" maskUnits="userSpaceOnUse" x="0" y="0" width="24" height="24">
<rect width="24" height="24" fill="#D9D9D9"/>
</mask>
<g mask="url(#mask0_383_774)">
<path d="M4.5001 17.4001C4.2451 17.4001 4.03135 17.3143 3.85885 17.1428C3.68635 16.9713 3.6001 16.7588 3.6001 16.5053C3.6001 16.2518 3.68635 16.0376 3.85885 15.8626C4.03135 15.6876 4.2451 15.6001 4.5001 15.6001H19.5001C19.7551 15.6001 19.9688 15.6858 20.1413 15.8573C20.3138 16.0288 20.4001 16.2413 20.4001 16.4948C20.4001 16.7483 20.3138 16.9626 20.1413 17.1376C19.9688 17.3126 19.7551 17.4001 19.5001 17.4001H4.5001ZM4.5001 12.9001C4.2451 12.9001 4.03135 12.8143 3.85885 12.6428C3.68635 12.4713 3.6001 12.2588 3.6001 12.0053C3.6001 11.7518 3.68635 11.5376 3.85885 11.3626C4.03135 11.1876 4.2451 11.1001 4.5001 11.1001H19.5001C19.7551 11.1001 19.9688 11.1858 20.1413 11.3573C20.3138 11.5288 20.4001 11.7413 20.4001 11.9948C20.4001 12.2483 20.3138 12.4626 20.1413 12.6376C19.9688 12.8126 19.7551 12.9001 19.5001 12.9001H4.5001ZM4.5001 8.4001C4.2451 8.4001 4.03135 8.31435 3.85885 8.14285C3.68635 7.97135 3.6001 7.75885 3.6001 7.50535C3.6001 7.25185 3.68635 7.0376 3.85885 6.8626C4.03135 6.6876 4.2451 6.6001 4.5001 6.6001H19.5001C19.7551 6.6001 19.9688 6.68585 20.1413 6.85735C20.3138 7.02885 20.4001 7.24135 20.4001 7.49485C20.4001 7.74835 20.3138 7.9626 20.1413 8.1376C19.9688 8.3126 19.7551 8.4001 19.5001 8.4001H4.5001Z" fill="white"/>
</g>
</svg>