<svg width="32" height="32" viewBox="0 0 32 32" fill="none" xmlns="http://www.w3.org/2000/svg">
<g id="groups_FILL0_wght400_GRAD0_opsz48 1" clip-path="url(#clip0_248_3826)">
<path id="Vector" d="M1 24C0.716667 24 0.479167 23.9042 0.2875 23.7125C0.0958333 23.5208 0 23.2833 0 23V22.2333C0 21.3564 0.458333 20.6538 1.375 20.1256C2.29167 19.5974 3.5 19.3333 5 19.3333C5.26667 19.3333 5.52778 19.3417 5.78333 19.3583C6.03889 19.375 6.28889 19.4 6.53333 19.4333C6.35556 19.8111 6.22222 20.1988 6.13333 20.5963C6.04444 20.9938 6 21.4173 6 21.8667V24H1ZM9 24C8.71667 24 8.47917 23.9042 8.2875 23.7125C8.09583 23.5208 8 23.2833 8 23V21.8667C8 20.4222 8.73889 19.25 10.2167 18.35C11.6944 17.45 13.6222 17 16 17C18.4 17 20.3333 17.45 21.8 18.35C23.2667 19.25 24 20.4222 24 21.8667V23C24 23.2833 23.9042 23.5208 23.7125 23.7125C23.5208 23.9042 23.2833 24 23 24H9ZM26 24V21.8667C26 21.4173 25.9556 20.9938 25.8667 20.5963C25.7778 20.1988 25.6444 19.8081 25.4667 19.4242C25.7111 19.3859 25.9611 19.3611 26.2167 19.35C26.4722 19.3389 26.7342 19.3333 27.0027 19.3333C28.4898 19.3333 29.6944 19.5974 30.6167 20.1256C31.5389 20.6538 32 21.3564 32 22.2333V23C32 23.2833 31.9042 23.5208 31.7125 23.7125C31.5208 23.9042 31.2833 24 31 24H26ZM16 19C14.2 19 12.75 19.2722 11.65 19.8167C10.55 20.3611 10 21.0444 10 21.8667V22H22V21.8333C22 21.0333 21.45 20.3611 20.35 19.8167C19.25 19.2722 17.8 19 16 19ZM4.99703 18.3333C4.35457 18.3333 3.80556 18.1046 3.35 17.647C2.89444 17.1895 2.66667 16.6395 2.66667 15.997C2.66667 15.3546 2.89543 14.8056 3.35297 14.35C3.81048 13.8944 4.36048 13.6667 5.00297 13.6667C5.64543 13.6667 6.19444 13.8954 6.65 14.353C7.10556 14.8105 7.33333 15.3605 7.33333 16.003C7.33333 16.6454 7.10457 17.1944 6.64703 17.65C6.18952 18.1056 5.63952 18.3333 4.99703 18.3333ZM26.997 18.3333C26.3546 18.3333 25.8056 18.1046 25.35 17.647C24.8944 17.1895 24.6667 16.6395 24.6667 15.997C24.6667 15.3546 24.8954 14.8056 25.353 14.35C25.8105 13.8944 26.3605 13.6667 27.003 13.6667C27.6454 13.6667 28.1944 13.8954 28.65 14.353C29.1056 14.8105 29.3333 15.3605 29.3333 16.003C29.3333 16.6454 29.1046 17.1944 28.647 17.65C28.1895 18.1056 27.6395 18.3333 26.997 18.3333ZM16 16C14.8889 16 13.9444 15.6111 13.1667 14.8333C12.3889 14.0556 12 13.1111 12 12C12 10.8889 12.3889 9.94444 13.1667 9.16667C13.9444 8.38889 14.8889 8 16 8C17.1111 8 18.0556 8.38889 18.8333 9.16667C19.6111 9.94444 20 10.8889 20 12C20 13.1111 19.6111 14.0556 18.8333 14.8333C18.0556 15.6111 17.1111 16 16 16ZM16 10C15.4333 10 14.9583 10.1917 14.575 10.575C14.1917 10.9583 14 11.4333 14 12C14 12.5667 14.1917 13.0417 14.575 13.425C14.9583 13.8083 15.4333 14 16 14C16.5667 14 17.0417 13.8083 17.425 13.425C17.8083 13.0417 18 12.5667 18 12C18 11.4333 17.8083 10.9583 17.425 10.575C17.0417 10.1917 16.5667 10 16 10Z" fill="white"/>
</g>
<defs>
<clipPath id="clip0_248_3826">
<rect width="32" height="32" fill="white"/>
</clipPath>
</defs>
</svg>
