<svg xmlns="http://www.w3.org/2000/svg" width="56" height="56" viewBox="0 0 56 56" fill="none">
<mask id="mask0_381_5188" style="mask-type:alpha" maskUnits="userSpaceOnUse" x="0" y="0" width="56" height="56">
<rect width="56" height="56" fill="#D9D9D9"/>
</mask>
<g mask="url(#mask0_381_5188)">
<path d="M24.8551 33.1746L19.4347 27.7537C19.1116 27.4309 18.7054 27.2656 18.2162 27.2578C17.7273 27.2504 17.3138 27.4157 16.9754 27.7537C16.6375 28.092 16.4685 28.5019 16.4685 28.9833C16.4685 29.4648 16.6375 29.8747 16.9754 30.213L23.3787 36.6162C23.8006 37.0378 24.2928 37.2486 24.8551 37.2486C25.4174 37.2486 25.9096 37.0378 26.3315 36.6162L39.313 23.6348C39.6358 23.3116 39.8011 22.9054 39.8088 22.4162C39.8162 21.9273 39.6509 21.5138 39.313 21.1754C38.9747 20.8375 38.5648 20.6685 38.0833 20.6685C37.6019 20.6685 37.192 20.8375 36.8537 21.1754L24.8551 33.1746ZM28.1707 50.3333C25.1047 50.3333 22.2229 49.7516 19.5252 48.588C16.8274 47.4244 14.4809 45.8454 12.4855 43.8507C10.4901 41.8561 8.91025 39.5106 7.74592 36.814C6.58197 34.1174 6 31.2364 6 28.1707C6 25.1047 6.58178 22.2229 7.74533 19.5252C8.90889 16.8274 10.488 14.4809 12.4826 12.4855C14.4772 10.4901 16.8228 8.91025 19.5193 7.74592C22.2159 6.58197 25.097 6 28.1626 6C31.2286 6 34.1104 6.58178 36.8082 7.74533C39.5059 8.90889 41.8524 10.488 43.8478 12.4826C45.8432 14.4772 47.4231 16.8228 48.5874 19.5193C49.7514 22.2159 50.3333 25.097 50.3333 28.1626C50.3333 31.2286 49.7516 34.1104 48.588 36.8082C47.4244 39.5059 45.8454 41.8524 43.8507 43.8478C41.8561 45.8432 39.5106 47.4231 36.814 48.5874C34.1174 49.7514 31.2364 50.3333 28.1707 50.3333ZM28.1667 46.8333C33.3778 46.8333 37.7917 45.025 41.4083 41.4083C45.025 37.7917 46.8333 33.3778 46.8333 28.1667C46.8333 22.9556 45.025 18.5417 41.4083 14.925C37.7917 11.3083 33.3778 9.5 28.1667 9.5C22.9556 9.5 18.5417 11.3083 14.925 14.925C11.3083 18.5417 9.5 22.9556 9.5 28.1667C9.5 33.3778 11.3083 37.7917 14.925 41.4083C18.5417 45.025 22.9556 46.8333 28.1667 46.8333Z" fill="#32E62E"/>
</g>
</svg>