<svg width="233" height="40" viewBox="0 0 233 40" fill="none" xmlns="http://www.w3.org/2000/svg">
<g clip-path="url(#clip0_323_3142)">
<path d="M69.8738 30.667H64.4738V14.407H58.1738V9.66699H76.2038V14.407H69.8738V30.667Z" fill="white"/>
<path d="M100.86 30.667H84.6602V9.66699H100.62V14.407H90.0602V17.257H98.4602V21.817H90.0602V25.927H100.86V30.667Z" fill="white"/>
<path d="M120.038 30.667H114.638V14.407H108.338V9.66699H126.368V14.407H120.038V30.667Z" fill="white"/>
<path d="M140.224 30.667H134.824V9.66699H144.694C147.014 9.66699 148.844 10.277 150.184 11.497C151.564 12.697 152.254 14.247 152.254 16.147C152.254 17.507 151.894 18.707 151.174 19.747C150.454 20.787 149.454 21.557 148.174 22.057L154.534 30.667H148.324L142.384 22.657H140.224V30.667ZM140.224 14.227V18.247H144.394C145.134 18.247 145.714 18.077 146.134 17.737C146.574 17.377 146.794 16.887 146.794 16.267C146.794 15.647 146.574 15.157 146.134 14.797C145.714 14.417 145.134 14.227 144.394 14.227H140.224Z" fill="white"/>
<path d="M167.8 30.667H162.4V9.66699H167.8V30.667Z" fill="white"/>
<path d="M182.949 30.667H177.549V9.66699H182.949V17.677L189.759 9.66699H196.239L188.109 19.327L197.739 30.667H191.169L182.949 21.337V30.667Z" fill="white"/>
<path d="M209.2 30.6669H203.5L212.32 9.54688H217.51L226.33 30.6669H220.54L218.77 26.2269H210.97L209.2 30.6669ZM214.87 16.2969L212.68 21.9069H217.06L214.87 16.2969Z" fill="white"/>
<path d="M13.334 0H26.6673V13.3333H13.334V0Z" fill="#FDE638"/>
<path d="M13.332 13.333H26.6654V26.6664H13.332V13.333Z" fill="#FDE638"/>
<path d="M26.668 13.334L40.0016 13.3341V26.6674H26.668V13.334Z" fill="#0ADC95"/>
<path d="M26.668 26.666H40.0016V39.9992H26.6682L26.668 26.666Z" fill="#0ADC95"/>
<path d="M13.332 26.667H26.6654L26.6656 40.0002H13.332V26.667Z" fill="#0ADC95"/>
<path d="M0 26.667L13.3332 26.6671V40.0003H0V26.667Z" fill="#3A41F0"/>
<path d="M0 13.3331L13.3332 13.333V26.6664L0 26.6663V13.3331Z" fill="#3A41F0"/>
<path d="M26.668 0H40.0016V13.3334L26.668 13.3333V0Z" fill="#FDE638"/>
<path d="M0 0H13.3332V13.3333L0 13.3334V0Z" fill="#FDE638"/>
</g>
<defs>
<clipPath id="clip0_323_3142">
<rect width="232.667" height="40" fill="white"/>
</clipPath>
</defs>
</svg>
