<svg width="27" height="27" viewBox="0 0 27 27" fill="none" xmlns="http://www.w3.org/2000/svg">
<path d="M14.4281 13.1625V8.35313C14.4281 8.10938 14.3484 7.90781 14.1891 7.74844C14.0297 7.58906 13.8281 7.50938 13.5844 7.50938C13.3406 7.50938 13.1391 7.58906 12.9797 7.74844C12.8203 7.90781 12.7406 8.10938 12.7406 8.35313V13.5C12.7406 13.6125 12.7594 13.7156 12.7969 13.8094C12.8344 13.9031 12.8906 13.9969 12.9656 14.0906L17.0156 18.2813C17.1844 18.4688 17.3953 18.5578 17.6484 18.5484C17.9016 18.5391 18.1125 18.45 18.2813 18.2813C18.45 18.1125 18.5344 17.9063 18.5344 17.6625C18.5344 17.4188 18.45 17.2125 18.2813 17.0438L14.4281 13.1625ZM13.5 24.75C11.9625 24.75 10.5094 24.4547 9.14063 23.8641C7.77188 23.2734 6.57656 22.4672 5.55469 21.4453C4.53281 20.4234 3.72656 19.2281 3.13594 17.8594C2.54531 16.4906 2.25 15.0375 2.25 13.5C2.25 11.9625 2.54531 10.5094 3.13594 9.14063C3.72656 7.77188 4.53281 6.57656 5.55469 5.55469C6.57656 4.53281 7.77188 3.72656 9.14063 3.13594C10.5094 2.54531 11.9625 2.25 13.5 2.25C15.0375 2.25 16.4906 2.54531 17.8594 3.13594C19.2281 3.72656 20.4234 4.53281 21.4453 5.55469C22.4672 6.57656 23.2734 7.77188 23.8641 9.14063C24.4547 10.5094 24.75 11.9625 24.75 13.5C24.75 15.0375 24.4547 16.4906 23.8641 17.8594C23.2734 19.2281 22.4672 20.4234 21.4453 21.4453C20.4234 22.4672 19.2281 23.2734 17.8594 23.8641C16.4906 24.4547 15.0375 24.75 13.5 24.75ZM13.5 23.0625C16.125 23.0625 18.375 22.125 20.25 20.25C22.125 18.375 23.0625 16.125 23.0625 13.5C23.0625 10.875 22.125 8.625 20.25 6.75C18.375 4.875 16.125 3.9375 13.5 3.9375C10.875 3.9375 8.625 4.875 6.75 6.75C4.875 8.625 3.9375 10.875 3.9375 13.5C3.9375 16.125 4.875 18.375 6.75 20.25C8.625 22.125 10.875 23.0625 13.5 23.0625Z" fill="white"/>
</svg>
