<svg width="184" height="40" viewBox="0 0 184 40" fill="none" xmlns="http://www.w3.org/2000/svg">
<path d="M12.7587 30.7355C6.00411 30.7355 3.88501 27.7497 3.88501 22.0856V14.4457H0V10.933L4.50308 8.95719L7.63758 3.46872H11.4784V8.78156H17.4826V14.4457H11.4784V24.764H16.7762V30.7355H12.7587Z" fill="white"/>
<path d="M19.9873 30.7355V8.78156H27.36V13.1723C28.2429 10.1427 30.053 8.4303 33.5848 8.4303H35.439V15.7629H32.746C29.1259 15.7629 27.5807 17.5192 27.5807 21.9539V30.7355H19.9873Z" fill="white"/>
<path d="M43.8782 31.3063C39.4634 31.3063 36.5496 28.8035 36.5496 24.9396C36.5496 21.427 38.0065 19.0999 44.0989 18.09L49.1318 17.2119C51.1184 16.8606 51.6923 16.3337 51.6923 15.1921C51.6923 13.8749 50.8977 13.0845 48.3371 13.0845C45.6882 13.0845 44.4079 14.1383 44.3638 16.0703H36.9911C37.2118 11.416 41.3176 8.07903 48.2488 8.07903C55.2683 8.07903 58.6677 10.933 58.6677 15.9385V24.6762C58.6677 27.0033 58.8443 28.9352 59.065 30.7355H52.5311C52.3104 29.4621 52.178 27.9693 52.178 26.169C51.0743 29.3743 48.3371 31.3063 43.8782 31.3063ZM44.0106 24.0615C44.0106 25.5982 45.2467 26.3886 46.7478 26.3886C49.6174 26.3886 51.6923 24.3688 51.6923 20.4171V19.5829C50.5886 20.3732 49.6174 20.6367 48.2046 20.9879L46.9685 21.2953C44.8053 21.8222 44.0106 22.5686 44.0106 24.0615Z" fill="white"/>
<path d="M59.0985 8.78156H66.8244L72.1221 25.0274L77.4199 8.78156H84.616L77.2874 30.7355H66.427L59.0985 8.78156Z" fill="white"/>
<path d="M91.6596 31.3063C87.2448 31.3063 84.3311 28.8035 84.3311 24.9396C84.3311 21.427 85.7879 19.0999 91.8803 18.09L96.9132 17.2119C98.8999 16.8606 99.4738 16.3337 99.4738 15.1921C99.4738 13.8749 98.6791 13.0845 96.1185 13.0845C93.4697 13.0845 92.1894 14.1383 92.1452 16.0703H84.7725C84.9933 11.416 89.099 8.07903 96.0302 8.07903C103.05 8.07903 106.449 10.933 106.449 15.9385V24.6762C106.449 27.0033 106.626 28.9352 106.846 30.7355H100.313C100.092 29.4621 99.9594 27.9693 99.9594 26.169C98.8557 29.3743 96.1185 31.3063 91.6596 31.3063ZM91.792 24.0615C91.792 25.5982 93.0282 26.3886 94.5292 26.3886C97.3988 26.3886 99.4738 24.3688 99.4738 20.4171V19.5829C98.3701 20.3732 97.3988 20.6367 95.9861 20.9879L94.75 21.2953C92.5867 21.8222 91.792 22.5686 91.792 24.0615Z" fill="white"/>
<path d="M109.822 30.7355V0H117.416V30.7355H109.822Z" fill="white"/>
<path d="M121.141 30.7355V8.78156H128.735V30.7355H121.141ZM121.009 6.10318V1.53677H128.911V6.10318H121.009Z" fill="white"/>
<path d="M143.728 40C135.781 40 132.117 36.3117 131.808 31.5697H139.224C139.489 33.4577 140.858 34.8189 144.125 34.8189C147.48 34.8189 149.025 33.5895 149.025 30.6476V26.7398C147.524 28.8474 145.096 30.0768 141.476 30.0768C134.236 30.0768 131.234 24.8957 131.234 19.0999C131.234 13.1723 134.236 8.12294 141.476 8.12294C145.096 8.12294 147.524 9.35236 149.025 11.416V8.78156H156.619V29.4621C156.619 36.5313 153.043 40 143.728 40ZM138.827 19.2316C138.827 23.0516 140.284 24.5445 144.081 24.5445C147.833 24.5445 149.025 22.7881 149.025 19.2316C149.025 15.719 147.833 13.9627 144.081 13.9627C140.284 13.9627 138.827 15.4555 138.827 19.2316Z" fill="white"/>
<path d="M159.91 30.7355V8.78156H167.504V12.865C168.96 9.96707 171.477 8.07903 175.45 8.07903C181.189 8.07903 183.75 11.6356 183.75 17.3875V30.7355H176.157V18.6608C176.157 15.7629 174.965 14.1822 172.316 14.1822C169.269 14.1822 167.504 16.1142 167.504 20.4171V30.7355H159.91Z" fill="white"/>
</svg>
