<svg xmlns="http://www.w3.org/2000/svg" width="109" height="40" viewBox="0 0 109 40" fill="none">
<path fill-rule="evenodd" clip-rule="evenodd" d="M34.1953 6.51858H34.7072V6.48828H45.3362C48.7086 6.48828 51.2379 6.91252 53.466 8.91252C55.3028 10.6095 56.176 12.5792 56.176 14.9731C56.176 17.3065 55.3931 19.2762 53.8876 20.6701C53.3155 21.1853 52.6832 21.5792 52.0207 21.9125C52.8939 22.2762 53.7069 22.7004 54.4597 23.3368C56.5072 25.064 57.4105 27.1246 57.4105 29.9731C57.4105 35.6701 53.466 39.3671 47.3536 39.3671H34.1953V6.51858ZM47.0822 13.3363C46.209 12.9727 45.1852 12.9727 44.6432 12.9727H41.5117V19.1848H45.2454C46.209 19.1848 47.0822 19.1242 47.8048 18.306C48.2866 17.7908 48.5877 16.9424 48.5877 16.0636C48.5877 14.7908 48.0156 13.7302 47.0822 13.3363ZM45.5469 25.5195C46.5104 25.5195 47.4739 25.6104 48.2267 26.3377C48.859 26.9438 49.2504 28.0347 49.2504 29.1862C49.2504 30.1256 48.9794 31.065 48.4977 31.762C47.6847 32.8832 46.8115 33.0953 45.5469 33.0953H41.5723V25.5195H45.5469ZM57.7051 6.48828H83.57H84.2927L82.185 12.7913H74.1756V39.3368H66.8286V12.7913H57.7051V6.48828ZM106.808 6.48828H85.4902V39.3368H97.685C100.455 39.3368 103.045 38.6398 104.791 37.4277C106.598 36.1852 108.736 33.7307 108.736 29.0337C108.736 24.6398 106.658 22.2762 105.393 21.2762C104.068 20.1852 101.599 18.9125 97.3839 18.9125H92.8071V12.7913H105.152L107.29 6.48828H106.808ZM99.1279 25.822C98.5257 25.3674 97.532 25.125 96.5083 25.125H92.8047V32.9735H96.7191C98.1041 32.9735 99.0978 32.5795 99.7301 31.7614C100.091 31.3371 100.543 30.5795 100.543 29.0341C100.543 27.5492 100.091 26.4886 99.1279 25.822Z" fill="#3363FF"/>
<path fill-rule="evenodd" clip-rule="evenodd" d="M30.1708 3.84848H4.48652L6.08238 0H31.7666L30.1708 3.84848ZM27.9429 10.6053H2.22852L3.82437 6.72656H29.5387L27.9429 10.6053ZM0 17.3319H25.6843L27.2801 13.4531H1.59586L0 17.3319Z" fill="#00AEEF"/>
</svg>