<svg width="27" height="27" viewBox="0 0 27 27" fill="none" xmlns="http://www.w3.org/2000/svg">
<path d="M13.5 24.75C11.9437 24.75 10.4812 24.4547 9.1125 23.8641C7.74375 23.2734 6.55312 22.4719 5.54062 21.4594C4.52813 20.4469 3.72656 19.2563 3.13594 17.8875C2.54531 16.5187 2.25 15.0562 2.25 13.5C2.25 11.9437 2.54531 10.4812 3.13594 9.1125C3.72656 7.74375 4.52813 6.55312 5.54062 5.54062C6.55312 4.52813 7.74375 3.72656 9.1125 3.13594C10.4812 2.54531 11.9437 2.25 13.5 2.25C15.0562 2.25 16.5187 2.54531 17.8875 3.13594C19.2563 3.72656 20.4469 4.52813 21.4594 5.54062C22.4719 6.55312 23.2734 7.74375 23.8641 9.1125C24.4547 10.4812 24.75 11.9437 24.75 13.5C24.75 15.0562 24.4547 16.5187 23.8641 17.8875C23.2734 19.2563 22.4719 20.4469 21.4594 21.4594C20.4469 22.4719 19.2563 23.2734 17.8875 23.8641C16.5187 24.4547 15.0562 24.75 13.5 24.75ZM12.2906 23.0344V20.7281C11.6344 20.7281 11.0813 20.4844 10.6312 19.9969C10.1812 19.5094 9.95625 18.9375 9.95625 18.2812V17.0437L4.19062 11.2781C4.09687 11.6531 4.03125 12.0234 3.99375 12.3891C3.95625 12.7547 3.9375 13.125 3.9375 13.5C3.9375 15.9375 4.72969 18.0656 6.31406 19.8844C7.89844 21.7031 9.89062 22.7531 12.2906 23.0344ZM20.5594 19.9969C20.9719 19.5469 21.3328 19.0688 21.6422 18.5625C21.9516 18.0562 22.2141 17.5266 22.4297 16.9734C22.6453 16.4203 22.8047 15.8531 22.9078 15.2719C23.0109 14.6906 23.0625 14.1 23.0625 13.5C23.0625 11.5125 22.5187 9.70781 21.4312 8.08594C20.3438 6.46406 18.8906 5.27812 17.0719 4.52813V5.03437C17.0719 5.69062 16.8469 6.2625 16.3969 6.75C15.9469 7.2375 15.3937 7.48125 14.7375 7.48125H12.2906V9.92812C12.2906 10.2469 12.1641 10.5094 11.9109 10.7156C11.6578 10.9219 11.3719 11.025 11.0531 11.025H8.71875V13.5H15.975C16.2937 13.5 16.5562 13.6219 16.7625 13.8656C16.9688 14.1094 17.0719 14.3906 17.0719 14.7094V18.2812H18.2812C18.825 18.2812 19.3031 18.4406 19.7156 18.7594C20.1281 19.0781 20.4094 19.4906 20.5594 19.9969Z" fill="white"/>
</svg>
